<svg xmlns="http://www.w3.org/2000/svg" xmlns:xlink="http://www.w3.org/1999/xlink" preserveAspectRatio="xMidYMid" width="33" height="21" viewBox="0 0 66 42">
  <defs>
    <style>
      .cls-1 {
        fill: #fff;
        fill-rule: evenodd;
      }
    </style>
  </defs>
  <path d="M44.712,42.001 L21.114,42.001 C9.453,42.001 -0.000,32.579 -0.000,20.999 C-0.000,9.419 9.453,-0.002 21.114,-0.002 L44.712,-0.002 C56.373,-0.002 66.000,9.077 66.000,20.658 L66.000,42.001 L44.712,42.001 ZM42.849,4.665 L22.977,4.665 C13.145,4.665 5.175,12.031 5.175,20.999 C5.175,29.969 13.145,37.334 22.977,37.334 L42.849,37.334 C47.815,37.334 52.306,35.323 55.534,32.332 C58.699,29.400 60.651,25.220 60.651,20.781 C60.651,11.811 52.681,4.665 42.849,4.665 ZM37.322,25.764 C39.427,25.764 41.134,27.459 41.134,29.550 C41.134,31.641 39.427,33.336 37.322,33.336 C35.216,33.336 33.508,31.641 33.508,29.550 C33.508,29.432 33.533,29.320 33.543,29.205 L26.963,24.497 C26.500,24.695 25.991,24.807 25.455,24.807 C23.349,24.807 21.642,23.112 21.642,21.022 C21.642,18.930 23.349,17.235 25.455,17.235 C25.889,17.235 26.298,17.322 26.687,17.455 L33.552,12.415 C33.536,12.274 33.508,12.136 33.508,11.990 C33.508,9.899 35.216,8.204 37.322,8.204 C39.427,8.204 41.134,9.899 41.134,11.990 C41.134,14.081 39.427,15.776 37.322,15.776 C36.844,15.776 36.392,15.679 35.971,15.520 L29.212,20.482 C29.238,20.659 29.267,20.837 29.267,21.022 C29.267,21.113 29.246,21.200 29.240,21.290 L35.888,26.046 C36.331,25.867 36.814,25.764 37.322,25.764 Z" class="cls-1"/>
</svg>
